<svg xmlns="http://www.w3.org/2000/svg" aria-hidden="true" style="position:absolute;width:0;height:0;overflow:hidden"><defs><symbol id="icon-Vector" viewBox="0 0 16 32"><path d="M15.662 15.122 1.959.362C1.51-.121.783-.12.335.365s-.447 1.27.002 1.754L13.224 16 .336 29.881a1.311 1.311 0 0 0-.002 1.754c.225.243.519.365.813.365s.587-.121.811-.362l13.703-14.76c.216-.232.338-.549.338-.878s-.122-.645-.338-.878z"/></symbol><symbol id="icon-Flat" viewBox="0 0 41 32"><path d="M37.647.941C35.558.282 33.261 0 31.059 0c-3.671 0-7.624.753-10.353 2.824C17.977.753 14.024 0 10.353 0S2.729.753 0 2.824V30.4c0 .471.471.941.941.941.188 0 .282-.094.471-.094 2.541-1.224 6.212-2.071 8.941-2.071 3.671 0 7.624.753 10.353 2.824 2.541-1.6 7.153-2.824 10.353-2.824 3.106 0 6.306.565 8.941 1.976.188.094.282.094.471.094.471 0 .941-.471.941-.941V2.823c-1.129-.847-2.353-1.412-3.765-1.882zm0 25.412c-2.071-.659-4.329-.941-6.588-.941-3.2 0-7.812 1.224-10.353 2.824V6.589c2.541-1.6 7.153-2.824 10.353-2.824 2.259 0 4.518.282 6.588.941v21.647z"/><path d="M31.059 11.294c1.656 0 3.256.169 4.706.489V8.922a25.447 25.447 0 0 0-4.706-.452c-3.2 0-6.099.546-8.471 1.562v3.125c2.127-1.205 5.082-1.864 8.471-1.864zm-8.471 3.746v3.125c2.127-1.205 5.082-1.864 8.471-1.864 1.656 0 3.256.169 4.706.489v-2.861a25.447 25.447 0 0 0-4.706-.452c-3.2 0-6.099.565-8.471 1.562zm8.471 3.464c-3.2 0-6.099.546-8.471 1.562v3.125c2.127-1.205 5.082-1.864 8.471-1.864 1.656 0 3.256.169 4.706.489v-2.861a23.913 23.913 0 0 0-4.706-.452z"/></symbol><symbol id="icon-icon-home" viewBox="0 0 38 32"><path d="m18.824 5.064 9.412 8.471v14.701h-3.765V16.942H13.177v11.294H9.412V13.535l9.412-8.471zm0-5.064L0 16.941h5.647V32h11.294V20.706h3.765V32H32V16.941h5.647L18.823 0z"/></symbol></defs></svg>