<svg xmlns="http://www.w3.org/2000/svg" aria-hidden="true" style="position:absolute;width:0;height:0;overflow:hidden"><defs><symbol id="icon-back" viewBox="0 0 64 32"><path d="m.733 17.827.002.002 13.063 13.419c.979 1.005 2.562 1.002 3.536-.009s.97-2.644-.008-3.65L8.555 18.58H61.5c1.381 0 2.5-1.155 2.5-2.581s-1.119-2.581-2.5-2.581H8.555l8.77-9.01c.979-1.005.982-2.639.008-3.65S14.776-.256 13.797.749L.734 14.168l-.002.002a2.642 2.642 0 0 0 0 3.653z"/></symbol><symbol id="icon-cross" viewBox="0 0 32 32"><path d="M30.4 14.4H17.6V1.6a1.6 1.6 0 0 0-3.2 0v12.8H1.6a1.6 1.6 0 0 0 0 3.2h12.8v12.8a1.6 1.6 0 0 0 3.2 0V17.6h12.8a1.6 1.6 0 0 0 0-3.2z"/></symbol><symbol id="icon-flag" viewBox="0 0 28 32"><path d="m13.854 3.765.753 3.765h9.864v11.294h-6.325l-.753-3.765H3.765V3.765h10.089zM16.941 0H0v32h3.765V18.824h10.541l.753 3.765h13.176V3.765H17.694L16.941 0z"/></symbol><symbol id="icon-Vector" viewBox="0 0 27 32"><path d="M22.907 22.883c-.063-.305-.311-.447-.493-.638-1.316-1.39-2.653-2.768-3.972-4.159-.562-.59-.611-1.221-.168-1.669s1.062-.409 1.609.162a1630.82 1630.82 0 0 1 6.306 6.576c.644.676.636 1.149-.013 1.831a1675.173 1675.173 0 0 1-6.251 6.524c-.576.598-1.141.644-1.609.171s-.398-1.085.158-1.671c1.303-1.373 2.618-2.734 3.922-4.104.183-.192.424-.34.499-.644-.206-.211-.461-.111-.687-.111-6.87-.007-13.743-.011-20.619-.011-1.303 0-1.579-.296-1.579-1.654V1.669A4.14 4.14 0 0 1 .032.906C.143.343.485-.009 1.047.001s.893.365.997.929c.025.227.031.457.016.685 0 6.866.01 13.731-.012 20.589 0 .648.177.799.774.796 6.456-.021 12.912-.012 19.368-.017.249.012.505.101.718-.101z"/></symbol><symbol id="icon-Vector1" viewBox="0 0 16 32"><path d="M15.662 15.122 1.959.362C1.51-.121.783-.12.335.365s-.447 1.27.002 1.754L13.224 16 .336 29.881a1.311 1.311 0 0 0-.002 1.754c.225.243.519.365.813.365s.587-.121.811-.362l13.703-14.76c.216-.232.338-.549.338-.878s-.122-.645-.338-.878z"/></symbol><symbol id="icon-Flat" viewBox="0 0 41 32"><path d="M37.647.941C35.558.282 33.261 0 31.059 0c-3.671 0-7.624.753-10.353 2.824C17.977.753 14.024 0 10.353 0S2.729.753 0 2.824V30.4c0 .471.471.941.941.941.188 0 .282-.094.471-.094 2.541-1.224 6.212-2.071 8.941-2.071 3.671 0 7.624.753 10.353 2.824 2.541-1.6 7.153-2.824 10.353-2.824 3.106 0 6.306.565 8.941 1.976.188.094.282.094.471.094.471 0 .941-.471.941-.941V2.823c-1.129-.847-2.353-1.412-3.765-1.882zm0 25.412c-2.071-.659-4.329-.941-6.588-.941-3.2 0-7.812 1.224-10.353 2.824V6.589c2.541-1.6 7.153-2.824 10.353-2.824 2.259 0 4.518.282 6.588.941v21.647z"/><path d="M31.059 11.294c1.656 0 3.256.169 4.706.489V8.922a25.447 25.447 0 0 0-4.706-.452c-3.2 0-6.099.546-8.471 1.562v3.125c2.127-1.205 5.082-1.864 8.471-1.864zm-8.471 3.746v3.125c2.127-1.205 5.082-1.864 8.471-1.864 1.656 0 3.256.169 4.706.489v-2.861a25.447 25.447 0 0 0-4.706-.452c-3.2 0-6.099.565-8.471 1.562zm8.471 3.464c-3.2 0-6.099.546-8.471 1.562v3.125c2.127-1.205 5.082-1.864 8.471-1.864 1.656 0 3.256.169 4.706.489v-2.861a23.913 23.913 0 0 0-4.706-.452z"/></symbol><symbol id="icon-icon-home" viewBox="0 0 38 32"><path d="m18.824 5.064 9.412 8.471v14.701h-3.765V16.942H13.177v11.294H9.412V13.535l9.412-8.471zm0-5.064L0 16.941h5.647V32h11.294V20.706h3.765V32H32V16.941h5.647L18.823 0z"/></symbol></defs></svg>